<?xml version="1.0" encoding="utf-8"?>
<!-- Generator: Adobe Illustrator 22.1.0, SVG Export Plug-In . SVG Version: 6.00 Build 0)  -->
<svg version="1.1" id="Layer_1" xmlns="http://www.w3.org/2000/svg" xmlns:xlink="http://www.w3.org/1999/xlink" x="0px" y="0px"
	 viewBox="0 0 165 140" style="enable-background:new 0 0 165 140;" xml:space="preserve">
<style type="text/css">
	.st0{fill:#FFFFFF;}
</style>
<g>
	<g>
		<g>
			<path class="st0" d="M30.2,100.8c0.1,0.3,0,0.7-0.2,1c-0.2,0.3-0.5,0.5-0.9,0.6l-18.2,4.3c-0.4,0.1-0.7,0-1-0.1
				c-0.3-0.2-0.5-0.4-0.6-0.8l-1-4c-0.1-0.3,0-0.7,0.2-1c0.2-0.3,0.5-0.5,0.9-0.6L22.7,97l-1.9-8.2c-0.1-0.4,0-0.7,0.1-1.1
				c0.2-0.3,0.4-0.5,0.8-0.6l3.8-0.9c0.3-0.1,0.7,0,1,0.2c0.3,0.2,0.5,0.5,0.6,0.9l3,12.7L30.2,100.8z"/>
			<path class="st0" d="M25.8,81.6L7.1,80.5c-0.4,0-0.7-0.2-1-0.4c-0.3-0.3-0.4-0.6-0.4-1L6,74.9c0-0.4,0.2-0.7,0.5-0.9
				c0.3-0.2,0.6-0.3,1-0.3l18.7,1.2c0.4,0,0.8,0.2,1,0.4c0.2,0.3,0.3,0.6,0.3,1l-0.3,4.2c0,0.4-0.2,0.7-0.4,1
				C26.5,81.6,26.2,81.7,25.8,81.6z"/>
			<path class="st0" d="M26.4,69.6l-3.5-1.4c-0.3-0.1-0.6-0.3-0.8-0.5c-0.2-0.2-0.3-0.4-0.4-0.6l-4.1-12.6l-3.7,8.9
				c-0.1,0.4-0.4,0.6-0.7,0.7c-0.3,0.1-0.6,0.1-0.9-0.1l-3.3-1.4c-0.3-0.1-0.5-0.4-0.7-0.7c-0.1-0.3-0.1-0.6-0.1-0.8L14.8,45
				c0.1-0.2,0.3-0.4,0.6-0.5c0.3-0.1,0.6,0,1,0.1l3.7,1.5c0.6,0.2,0.9,0.6,1.1,1.2l4.2,12.2l3.4-8.8c0.1-0.3,0.4-0.5,0.7-0.5
				c0.3,0,0.7,0,1,0.2l3.1,1.3c0.3,0.1,0.6,0.3,0.8,0.6c0.2,0.3,0.3,0.6,0.1,0.9L28,69c-0.2,0.4-0.4,0.6-0.7,0.7
				C27,69.8,26.7,69.7,26.4,69.6z"/>
			<path class="st0" d="M35.5,48.6c-0.2-0.3-0.4-0.5-0.6-0.9c-0.1-0.3-0.2-0.5-0.2-0.6L28,29.9c-0.2-0.4-0.2-0.9-0.1-1.3
				c0.1-0.4,0.3-0.8,0.7-1.1l1.8-1.7l1.4-1.3c0.4-0.3,0.8-0.5,1.3-0.6c0.4,0,0.8,0,1.2,0.2l16.8,8c0.1,0.1,0.3,0.2,0.6,0.3
				c0.3,0.2,0.5,0.4,0.7,0.6c0.5,0.5,0.5,1.1,0,1.8l-3.1,2.8c-0.3,0.3-0.6,0.5-1,0.6c-0.3,0.1-0.6,0.1-0.9-0.1l-2.8-1.6l-5,4.6
				l1.4,2.9c0.1,0.3,0.1,0.6,0,0.9c-0.1,0.3-0.3,0.6-0.6,0.9l-3.1,2.9C36.5,49.1,36,49.1,35.5,48.6z M38.8,34.8l1.5-1.4l-6.7-3.6
				l3.1,6.9L38.8,34.8z"/>
			<path class="st0" d="M66.8,27.3c-0.6-1.2-1.4-2-2.2-2.3c-0.8-0.3-1.8-0.3-2.8-0.1c-0.1,0-0.3,0.1-0.5,0.1
				c-0.2,0.1-0.4,0.1-0.5,0.2l0,0L62,29c0.1,0.4,0.2,0.7,0.2,0.9c0,0.2-0.1,0.5-0.4,0.7c-0.3,0.2-0.7,0.5-1.3,0.7l-2.7,0.9
				c-0.6,0.2-1.1,0.3-1.5,0.1c-0.4-0.1-0.7-0.4-0.9-0.8l-2.6-7.9l-3.3-10.1c-0.1-0.3,0-0.6,0.2-0.9c0.2-0.3,0.5-0.5,0.9-0.7l6.6-2.2
				c2.9-1,5.2-1.2,6.9-0.7c1.7,0.5,3,1.9,3.8,4c0.1,0.2,0.1,0.3,0.2,0.4c0,0.1,0.1,0.2,0.1,0.3l0.2,0.6c0.3,1.2,0.3,2.1,0,3
				c-0.3,0.8-0.7,1.7-1.4,2.5l0,0c1.1,0.2,2.1,0.6,2.9,1.3c0.9,0.7,1.5,1.5,2.1,2.4c0.5,0.9,0.9,1.7,1.1,2.5
				c0.1,0.3,0.1,0.6-0.1,0.9c-0.2,0.3-0.5,0.5-0.9,0.6l-3.6,1.2c-0.5,0.2-0.9,0.1-1.1-0.1c-0.2-0.2-0.4-0.4-0.5-0.7
				C67,27.6,66.9,27.4,66.8,27.3z M59.5,19.7c0.9-0.3,1.7-0.7,2.3-1.3c0.6-0.6,0.8-1.4,0.4-2.6c-0.3-0.8-0.7-1.4-1.4-1.6
				c-0.6-0.3-1.4-0.2-2.4,0.1L56.1,15l0.1,0.3l1.6,4.9l0.2-0.1l0.1,0L59.5,19.7z"/>
			<path class="st0" d="M77,25.3l1.7-18.7c0-0.4,0.2-0.7,0.5-0.9c0.3-0.2,0.6-0.3,1-0.3l8.2,0.8c1.9,0.2,3.7,0.8,5.3,2
				c1.6,1.1,2.8,2.5,3.7,4.3c0.9,1.7,1.2,3.6,1,5.5c-0.2,1.9-0.8,3.6-2,5.2c-1.2,1.5-2.7,2.7-4.4,3.5c-1.8,0.8-3.7,1.1-5.6,0.9
				l-8.2-0.8c-0.4,0-0.7-0.2-0.9-0.5C77,26,76.9,25.6,77,25.3z M87.1,20.9c0.7,0.1,1.3-0.1,1.9-0.4c0.6-0.3,1.1-0.8,1.6-1.5
				s0.7-1.4,0.7-2.2c0.1-0.8,0-1.5-0.3-2.2c-0.3-0.7-0.7-1.3-1.2-1.7c-0.5-0.5-1.2-0.7-1.8-0.8l-2.8-0.3c-0.1,0-0.3,0-0.4,0.1
				c-0.1,0.1-0.2,0.2-0.2,0.4l-0.7,7.7c0,0.2,0,0.3,0.1,0.4c0.1,0.1,0.2,0.2,0.3,0.2L87.1,20.9z"/>
			<path class="st0" d="M127.9,22.2l-9.3,16.4c-0.2,0.3-0.4,0.5-0.8,0.6s-0.7,0.1-1-0.1l-3.9-2.2c-0.3-0.2-0.5-0.4-0.6-0.8
				c-0.1-0.4-0.1-0.7,0.1-1L116,29l-6.9-3.9l-3.5,6.2c-0.2,0.3-0.4,0.5-0.8,0.6c-0.4,0.1-0.7,0.1-1-0.1l-3.9-2.2
				c-0.3-0.2-0.5-0.4-0.6-0.8c-0.1-0.4-0.1-0.7,0.1-1l9.3-16.4c0.2-0.3,0.4-0.5,0.8-0.6c0.3-0.1,0.7,0,1,0.1l3.9,2.2
				c0.3,0.2,0.5,0.4,0.6,0.8s0.1,0.7-0.1,1l-3.2,5.7l6.9,3.9l3.2-5.7c0.2-0.3,0.4-0.5,0.8-0.6c0.3-0.1,0.7,0,1,0.1l3.9,2.2
				c0.3,0.2,0.5,0.4,0.6,0.7C128.1,21.5,128.1,21.8,127.9,22.2z"/>
			<path class="st0" d="M137.2,38.4l-2,1.5l5.1,7c0.2,0.3,0.3,0.6,0.2,0.9c-0.1,0.4-0.2,0.7-0.5,0.9l-2.1,1.6
				c-0.3,0.2-0.6,0.3-1,0.2c-0.4,0-0.7-0.2-0.9-0.5l-5.1-7l-2.2,1.6l5.4,7.3c0.2,0.3,0.3,0.6,0.2,1c-0.1,0.4-0.2,0.7-0.6,0.9
				l-2.1,1.6c-0.3,0.2-0.6,0.3-1,0.3c-0.4,0-0.7-0.2-0.9-0.5l-8.6-11.6c-0.2-0.3-0.3-0.6-0.2-1c0.1-0.4,0.3-0.7,0.5-0.9l0.1-0.1
				l2-1.5l10.7-7.9l2.1-1.6c0.3-0.2,0.6-0.3,1-0.3c0.4,0.1,0.6,0.2,0.8,0.5l8.6,11.6c0.2,0.3,0.3,0.6,0.2,1
				c-0.1,0.4-0.2,0.7-0.5,0.9l-2.1,1.6c-0.3,0.2-0.6,0.3-1,0.2c-0.4,0-0.7-0.2-0.9-0.5L137.2,38.4z"/>
			<path class="st0" d="M133.5,58.4c0.3-0.1,0.7-0.1,1-0.1c0.4,0,0.6,0.1,0.6,0.1l18.3,2.9c0.5,0.1,0.8,0.3,1.1,0.6
				c0.3,0.3,0.5,0.7,0.7,1.2l0.5,2.5l0.4,1.9c0.1,0.5,0.1,1-0.1,1.4c-0.2,0.4-0.4,0.7-0.8,0.9l-15.3,10.4c-0.1,0-0.3,0.1-0.6,0.3
				c-0.3,0.2-0.6,0.3-0.8,0.3c-0.7,0.2-1.2-0.1-1.5-0.9l-0.9-4.1c-0.1-0.4-0.1-0.8,0-1.1s0.3-0.6,0.5-0.7l2.8-1.6l-1.5-6.7l-3.2-0.3
				c-0.3,0-0.6-0.1-0.8-0.4c-0.2-0.2-0.4-0.6-0.5-1l-0.9-4.2C132.5,59,132.8,58.6,133.5,58.4z M143.7,68.2l0.4,1.9l6.5-3.9l-7.5-0.8
				L143.7,68.2z"/>
			<path class="st0" d="M138.2,83.9l18.3,4c0.4,0.1,0.6,0.3,0.8,0.6c0.2,0.3,0.3,0.7,0.2,1l-1.7,8.1c-0.4,1.9-1.3,3.6-2.6,5
				c-1.3,1.5-2.9,2.5-4.7,3.2c-1.8,0.6-3.7,0.8-5.5,0.4c-1.9-0.4-3.5-1.3-4.9-2.6c-1.4-1.3-2.4-3-3-4.8c-0.6-1.9-0.7-3.8-0.3-5.7
				l1.7-8c0.1-0.4,0.3-0.6,0.6-0.8C137.5,83.9,137.9,83.8,138.2,83.9z M141.3,94.5c-0.1,0.7-0.1,1.3,0.2,2c0.3,0.7,0.7,1.2,1.3,1.7
				c0.6,0.5,1.3,0.8,2.1,1c0.8,0.2,1.5,0.2,2.3,0c0.7-0.2,1.4-0.5,1.9-1c0.5-0.5,0.8-1.1,1-1.7l0.6-2.8c0-0.1,0-0.3-0.1-0.4
				c-0.1-0.1-0.2-0.2-0.4-0.2l-7.6-1.6c-0.2,0-0.3,0-0.4,0.1c-0.1,0.1-0.2,0.2-0.2,0.3L141.3,94.5z"/>
		</g>
		<g>
			<g>
				<circle class="st0" cx="62.6" cy="77" r="5.9"/>
			</g>
			<g>
				<path class="st0" d="M102,49.1c0,0-1.9-1.3-3.6,0.4c-1.7,1.7-3.6,3.6-3.6,3.6L85,42c0,0-2-2.1-4.4,0c-2.3,2-9.8,11.1-9.8,11.1
					l-3.6-3.6c-0.8-0.9-2.1-1.2-3.6-0.4c-1.3,0.7-12.6,7.7-15.4,21.7c-2.6,0.9-4.5,3.4-4.5,6.3c0,3,1.9,5.5,4.6,6.4
					c1.4,6.1,4.2,10.2,4.2,10.2S53,95,55,95c2,0,16.1,0,16.1,0s4.7,13.6,22,13.6c11.6,0,26.2-8.7,26.2-28.4
					C119.4,61.8,107.1,51.6,102,49.1z M93.4,102.3c-11.9,0-17.5-9.2-17.5-15.4c0-10.2,8.5-15.1,14.1-15.1c5.6,0,10.4,4.3,10.4,9.6
					c0,5.5-3.2,8.4-7.4,8.4c-2.4,0-4.5-1-4.5-3.4c0-2,1-2.9,2.3-3.3c2-0.6,2.5-1.6,2.5-3.1c-0.1-1.7-1.5-3-3.5-2.7
					c-5.3,0.9-7.2,5-7.2,9c0,3.6,2.5,9.2,10.5,9.2c9,0,13.5-7.3,13.5-14.2c0-6.8-5-15.9-16.5-15.9c-10.4,0-20.4,8.1-20.4,21.4
					c0,1.3,0.1,1.9,0.1,1.9H57.3c0,0-3.6-5.4-3.6-11.9c0-13.5,11.1-21.1,11.1-21.1s2.9,3.5,4.1,4.7c1.2,1.2,3,1.1,4.2-0.1l9.7-11.6
					c0,0,8.5,10.5,9.6,11.5c1.1,1.1,3.1,1.3,4.2,0.1l4-4.7C106.7,60,113,67,113,79.7C113,91.1,105.4,102.3,93.4,102.3z"/>
			</g>
		</g>
		<g>
			<circle class="st0" cx="139" cy="126.9" r="3.5"/>
		</g>
		<g>
			<circle class="st0" cx="24.3" cy="126.9" r="3.5"/>
		</g>
		<g>
			<path class="st0" d="M32.5,127.3c0-3,2.5-5.5,5.5-5.5c3,0,5.5,2.5,5.5,5.5s-2.5,5.5-5.5,5.5C35,132.7,32.5,130.3,32.5,127.3z
				 M40.3,127.1c0-1.3-1.1-2.4-2.4-2.4c-1.3,0-2.4,1.1-2.4,2.4c0,1.3,1,2.4,2.4,2.4C39.2,129.5,40.3,128.4,40.3,127.1z"/>
			<path class="st0" d="M45.9,127.6l0-5.2c0-0.3,0.2-0.4,0.5-0.4h2c0.4,0,0.6,0.2,0.6,0.4l0.1,4.9c0,1.3,0.8,2.1,1.9,2.1
				c1.2,0,1.7-0.7,1.7-2l0-5c0-0.3,0.3-0.5,0.6-0.5h2c0.4,0,0.6,0.2,0.6,0.5c0,0.9,0,1.6,0,2.2c0,2.5,0,3,0,3.1c0,2.1-0.9,4.8-5,4.8
				C47.4,132.6,45.9,130.1,45.9,127.6z"/>
			<path class="st0" d="M67.2,121.9c0.3,0,0.6,0.3,0.6,0.6v1.8c0,0.3-0.3,0.6-0.6,0.6h-2.4v6.8c0,0.4-0.3,0.7-0.6,0.7h-2
				c-0.3,0-0.6-0.3-0.6-0.7l0.1-6.8h-2.4c-0.4,0-0.7-0.3-0.7-0.6v-1.8c0-0.3,0.3-0.6,0.7-0.6H67.2z"/>
			<path class="st0" d="M70.5,131.8v-9.2c0-0.4,0.3-0.7,0.7-0.7h4c2.9,0,5.4,2.4,5.4,5.2c0,2.9-2.5,5.2-5.4,5.2h-4
				C70.8,132.4,70.5,132.1,70.5,131.8z M75.2,129.2c1,0,1.9-0.9,1.9-2.2c0-1.2-0.9-2.2-1.9-2.2h-1.4c-0.2,0-0.2,0.1-0.2,0.3v3.8
				c0,0.1,0.1,0.3,0.2,0.3H75.2z"/>
			<path class="st0" d="M82.8,127.3c0-3,2.5-5.5,5.5-5.5c3,0,5.5,2.5,5.5,5.5s-2.5,5.5-5.5,5.5C85.2,132.7,82.8,130.3,82.8,127.3z
				 M90.6,127.1c0-1.3-1.1-2.4-2.4-2.4c-1.3,0-2.4,1.1-2.4,2.4c0,1.3,1,2.4,2.4,2.4C89.5,129.5,90.6,128.4,90.6,127.1z"/>
			<path class="st0" d="M96.1,127.3c0-3,2.5-5.5,5.5-5.5s5.5,2.5,5.5,5.5s-2.5,5.5-5.5,5.5S96.1,130.3,96.1,127.3z M103.9,127.1
				c0-1.3-1.1-2.4-2.4-2.4c-1.3,0-2.4,1.1-2.4,2.4c0,1.3,1,2.4,2.4,2.4C102.8,129.5,103.9,128.4,103.9,127.1z"/>
			<path class="st0" d="M115.4,131.5c-0.2-1.5-1.1-1.8-2-1.9c-0.1,0-0.2,0-0.3,0s-0.2,0-0.3,0l0,0v1.9c0,0.4,0,0.9-1.1,0.9h-1.4
				c-0.6,0-1-0.3-1-0.7l0-4v-5.2c0-0.3,0.3-0.6,0.8-0.6h3.4c3,0,4.4,1,4.5,3.2c0,0.3,0,0.3,0,0.7c-0.1,1.3-0.8,1.9-1.5,2.3l0,0
				c1.6,0.8,1.9,2.8,1.9,3.8c0,0.3-0.2,0.6-0.7,0.6H116C115.3,132.5,115.4,131.9,115.4,131.5z M113.2,126.8c0.5,0,1.8,0,1.8-1.4
				c0-0.9-0.5-1.3-1.5-1.3h-1.2v0.1v2.5h0.1c0,0,0,0,0,0H113.2z"/>
			<path class="st0" d="M120.9,130.6c0-0.2,0.1-0.4,0.3-0.6c0.7-0.9,0.9-1.3,1.3-1.3c0.2,0,0.4,0.1,0.8,0.4c0.2,0.1,1.5,0.9,2.7,0.8
				c0.5,0,0.8-0.3,0.8-0.7c0-0.4-0.3-0.7-1.4-1h0c-2.8-0.5-3.5-1.4-3.6-3c-0.2-2,1.5-3.6,3.9-3.6c0.6,0,1.2,0.1,1.8,0.2
				c1,0.2,1.9,0.8,2.3,1.2c0.1,0.1,0.2,0.3,0.2,0.4c0,0.2-0.2,0.4-0.5,0.8l-0.5,0.5c-0.2,0.3-0.4,0.4-0.5,0.4
				c-0.2,0-0.4-0.2-0.9-0.4c-0.8-0.5-1.4-0.6-1.9-0.6c-0.7,0-1.1,0.4-1,0.8c0,0.4,0.4,0.8,1.1,0.8c3.1,0.4,4.4,1.9,4.4,3.4
				c0,1.8-1.8,3.5-4.4,3.6c-1.2,0-2.7-0.3-4.2-1.2C121.2,131.1,120.9,130.9,120.9,130.6z"/>
		</g>
	</g>
	<g>
		<path class="st0" d="M151.6,108.2l1.4,0.3c0,0,0.1,0.1,0.1,0.1l-0.1,0.3c0,0,0,0.1,0,0.1l-0.6,0.3l0.4,0.5c0,0,0,0.1,0,0.1
			l-0.1,0.3c0,0,0,0.1-0.1,0.1l-1.4-0.3c0,0-0.1,0-0.1-0.1l0.1-0.3c0,0,0.1-0.1,0.1-0.1l0.8,0.2l-0.4-0.5c0,0,0-0.1,0-0.1
			c0,0,0-0.1,0.1-0.1l0.5-0.3l-0.8-0.2c0,0-0.1-0.1-0.1-0.1l0.1-0.3C151.5,108.2,151.6,108.2,151.6,108.2z M153.4,107.1
			c0-0.1,0-0.1-0.1-0.1l-0.3-0.1c0,0-0.1,0-0.1,0.1l-0.1,0.4l-1-0.2c-0.1,0-0.1,0-0.1,0.1l-0.1,0.3c0,0,0,0.1,0.1,0.1l1,0.2
			l-0.1,0.4c0,0.1,0,0.1,0.1,0.1l0.3,0.1c0,0,0.1,0,0.1-0.1L153.4,107.1z"/>
	</g>
</g>
</svg>
